STARTFONT 2.1
COMMENT Copyright (C) 2022 by Andrew G. Crowell. Creative Commons Attribution 4.0 International License (CC BY 4.0).
COMMENT om_large_hvshadow_outline.bdf
FONT -eggboycolor-omelette_large_hvshadow_outline-medium-r-normal--16-100-72-72-m-90-ISO8859-1
SIZE 16 72 72
FONTBOUNDINGBOX 16 16 0 -2
STARTPROPERTIES 13
FONT_ASCENT 14 
FONT_DESCENT 2
PIXEL_SIZE 16
POINT_SIZE 100
RESOLUTION_X 72
RESOLUTION_Y 72
SPACING "C"
DEFAULT_CHAR 32
AVERAGE_WIDTH 90
CHARSET_REGISTRY "ISO8859"
CHARSET_ENCODING "1"
FOUNDRY "eggboycolor"
COPYRIGHT "Copyright (C) 2022 by Andrew G. Crowell. Creative Commons Attribution 4.0 International License (CC BY 4.0)."
ENDPROPERTIES
CHARS 96
STARTCHAR char32
ENCODING 32
SWIDTH 1600 0
DWIDTH 16 0
BBX 16 16 0 -2
BITMAP
0000
0000
0000
0000
0000
0000
0000
0000
0000
0000
0000
0000
0000
0000
0000
0000
ENDCHAR
STARTCHAR char33
ENCODING 33
SWIDTH 1600 0
DWIDTH 16 0
BBX 16 16 0 -2
BITMAP
0000
0008
0004
0004
0004
000C
0018
0030
0020
0060
01C0
0000
0040
0040
01C0
0000
ENDCHAR
STARTCHAR char34
ENCODING 34
SWIDTH 1600 0
DWIDTH 16 0
BBX 16 16 0 -2
BITMAP
0000
0000
0108
0108
0108
0B58
0630
0000
0000
0000
0000
0000
0000
0000
0000
0000
ENDCHAR
STARTCHAR char35
ENCODING 35
SWIDTH 1600 0
DWIDTH 16 0
BBX 16 16 0 -2
BITMAP
0000
0000
0044
0044
00CC
0088
0002
199E
0110
0004
333C
0220
0660
0440
1DC0
0000
ENDCHAR
STARTCHAR char36
ENCODING 36
SWIDTH 1600 0
DWIDTH 16 0
BBX 16 16 0 -2
BITMAP
0000
0040
0040
0004
027C
0640
0240
1008
0E44
0064
0044
000C
1E78
0040
01C0
0000
ENDCHAR
STARTCHAR char37
ENCODING 37
SWIDTH 1600 0
DWIDTH 16 0
BBX 16 16 0 -2
BITMAP
0000
0204
1904
1104
110C
4318
3E30
0060
00C0
0184
0332
0622
0C22
1886
307C
0000
ENDCHAR
STARTCHAR char38
ENCODING 38
SWIDTH 1600 0
DWIDTH 16 0
BBX 16 16 0 -2
BITMAP
0000
0040
0120
0390
0210
0210
0930
0462
0046
030C
0688
0444
0212
103A
0FE6
0000
ENDCHAR
STARTCHAR char39
ENCODING 39
SWIDTH 1600 0
DWIDTH 16 0
BBX 16 16 0 -2
BITMAP
0000
0000
0040
0040
0240
00C0
0380
0000
0000
0000
0000
0000
0000
0000
0000
0000
ENDCHAR
STARTCHAR char40
ENCODING 40
SWIDTH 1600 0
DWIDTH 16 0
BBX 16 16 0 -2
BITMAP
0000
0010
0030
0060
0040
0040
0040
0040
0040
0040
0040
0240
0020
0110
00F0
0000
ENDCHAR
STARTCHAR char41
ENCODING 41
SWIDTH 1600 0
DWIDTH 16 0
BBX 16 16 0 -2
BITMAP
0000
0080
0440
0240
0020
0020
0020
0020
0020
0020
0020
0060
0040
00C0
0780
0000
ENDCHAR
STARTCHAR char42
ENCODING 42
SWIDTH 1600 0
DWIDTH 16 0
BBX 16 16 0 -2
BITMAP
0000
0000
0000
0040
0040
0248
0008
0C38
0008
0248
0E78
0040
01C0
0000
0000
0000
ENDCHAR
STARTCHAR char43
ENCODING 43
SWIDTH 1600 0
DWIDTH 16 0
BBX 16 16 0 -2
BITMAP
0000
0000
0000
0000
0040
0040
0040
0040
0004
0004
1E7C
0040
0040
0040
01C0
0000
ENDCHAR
STARTCHAR char44
ENCODING 44
SWIDTH 1600 0
DWIDTH 16 0
BBX 16 16 0 -2
BITMAP
0000
0000
0000
0000
0000
0000
0000
0000
0000
0000
0000
0040
0040
0240
00C0
0380
ENDCHAR
STARTCHAR char45
ENCODING 45
SWIDTH 1600 0
DWIDTH 16 0
BBX 16 16 0 -2
BITMAP
0000
0000
0000
0000
0000
0000
0000
0000
0008
0008
0FF8
0000
0000
0000
0000
0000
ENDCHAR
STARTCHAR char46
ENCODING 46
SWIDTH 1600 0
DWIDTH 16 0
BBX 16 16 0 -2
BITMAP
0000
0000
0000
0000
0000
0000
0000
0000
0000
0000
0000
0040
0040
0040
03C0
0000
ENDCHAR
STARTCHAR char47
ENCODING 47
SWIDTH 1600 0
DWIDTH 16 0
BBX 16 16 0 -2
BITMAP
0000
0008
0008
0008
0018
0010
0030
0020
0060
0040
00C0
0080
0180
0100
0700
0000
ENDCHAR
STARTCHAR char48
ENCODING 48
SWIDTH 1600 0
DWIDTH 16 0
BBX 16 16 0 -2
BITMAP
0000
0010
0004
0184
0342
0202
0202
0242
00C2
0182
0302
2106
0004
181C
07F0
0000
ENDCHAR
STARTCHAR char49
ENCODING 49
SWIDTH 1600 0
DWIDTH 16 0
BBX 16 16 0 -2
BITMAP
0000
0020
0020
0020
0C20
0020
0020
0020
0020
0020
0020
0020
0008
0008
0FF8
0000
ENDCHAR
STARTCHAR char50
ENCODING 50
SWIDTH 1600 0
DWIDTH 16 0
BBX 16 16 0 -2
BITMAP
0000
0008
0004
0382
0642
3C02
0006
000C
0018
0030
0060
00C0
0002
0002
3FFE
0000
ENDCHAR
STARTCHAR char51
ENCODING 51
SWIDTH 1600 0
DWIDTH 16 0
BBX 16 16 0 -2
BITMAP
0000
0008
0004
03C2
0622
3C06
000C
0004
01C2
0022
0402
0202
2006
100C
0FF8
0000
ENDCHAR
STARTCHAR char52
ENCODING 52
SWIDTH 1600 0
DWIDTH 16 0
BBX 16 16 0 -2
BITMAP
0000
0104
0104
0304
0204
0604
0001
0001
7F87
0004
0004
0004
0004
0004
007C
0000
ENDCHAR
STARTCHAR char53
ENCODING 53
SWIDTH 1600 0
DWIDTH 16 0
BBX 16 16 0 -2
BITMAP
0000
0002
0002
03FE
0200
0200
0008
0004
3FC2
0022
0002
0002
0006
000C
3FF8
0000
ENDCHAR
STARTCHAR char54
ENCODING 54
SWIDTH 1600 0
DWIDTH 16 0
BBX 16 16 0 -2
BITMAP
0000
0010
0030
0060
00C0
0008
0004
03C2
0622
0402
0402
0202
2006
100C
0FF8
0000
ENDCHAR
STARTCHAR char55
ENCODING 55
SWIDTH 1600 0
DWIDTH 16 0
BBX 16 16 0 -2
BITMAP
0000
0002
0002
3FC2
0002
0006
000C
0018
0030
0060
0040
0040
0040
0040
07C0
0000
ENDCHAR
STARTCHAR char56
ENCODING 56
SWIDTH 1600 0
DWIDTH 16 0
BBX 16 16 0 -2
BITMAP
0000
0010
0004
03C2
0622
0202
2006
100C
03C4
0622
0402
0202
2006
181C
07F0
0000
ENDCHAR
STARTCHAR char57
ENCODING 57
SWIDTH 1600 0
DWIDTH 16 0
BBX 16 16 0 -2
BITMAP
0000
0008
0004
03C2
0622
0402
0202
2002
1006
0F0C
0018
0030
0060
00C0
0F80
0000
ENDCHAR
STARTCHAR char58
ENCODING 58
SWIDTH 1600 0
DWIDTH 16 0
BBX 16 16 0 -2
BITMAP
0000
0000
0000
0000
0000
0040
0040
0040
03C0
0000
0000
0040
0040
0040
03C0
0000
ENDCHAR
STARTCHAR char59
ENCODING 59
SWIDTH 1600 0
DWIDTH 16 0
BBX 16 16 0 -2
BITMAP
0000
0000
0000
0000
0000
0040
0040
0040
03C0
0000
0000
0040
0040
0240
00C0
0380
ENDCHAR
STARTCHAR char60
ENCODING 60
SWIDTH 1600 0
DWIDTH 16 0
BBX 16 16 0 -2
BITMAP
0000
0000
0000
0000
0000
0000
0008
0008
0038
00E0
0C20
0308
00C8
0038
0000
0000
ENDCHAR
STARTCHAR char61
ENCODING 61
SWIDTH 1600 0
DWIDTH 16 0
BBX 16 16 0 -2
BITMAP
0000
0000
0000
0000
0000
0000
0004
0004
1FFC
0000
0000
0004
0004
1FFC
0000
0000
ENDCHAR
STARTCHAR char62
ENCODING 62
SWIDTH 1600 0
DWIDTH 16 0
BBX 16 16 0 -2
BITMAP
0000
0000
0000
0000
0000
0000
0200
0080
0C20
0308
0038
00E0
0380
0E00
0000
0000
ENDCHAR
STARTCHAR char63
ENCODING 63
SWIDTH 1600 0
DWIDTH 16 0
BBX 16 16 0 -2
BITMAP
0000
0008
0004
01C2
0322
1E02
0006
001C
0070
0040
01C0
0000
0040
0040
01C0
0000
ENDCHAR
STARTCHAR char64
ENCODING 64
SWIDTH 1600 0
DWIDTH 16 0
BBX 16 16 0 -2
BITMAP
0000
0010
03C4
0632
0C22
0999
1B11
1211
1243
14E6
4B9C
2410
1830
07E0
0000
0000
ENDCHAR
STARTCHAR char65
ENCODING 65
SWIDTH 1600 0
DWIDTH 16 0
BBX 16 16 0 -2
BITMAP
0000
0010
0008
03C4
0202
0202
0202
0002
0002
03C2
0202
0202
0202
0202
3E3E
0000
ENDCHAR
STARTCHAR char66
ENCODING 66
SWIDTH 1600 0
DWIDTH 16 0
BBX 16 16 0 -2
BITMAP
0000
0008
0004
0382
0242
0202
0206
000C
0384
0242
0202
0202
0006
000C
3FF8
0000
ENDCHAR
STARTCHAR char67
ENCODING 67
SWIDTH 1600 0
DWIDTH 16 0
BBX 16 16 0 -2
BITMAP
0000
0008
0004
01C2
0322
021E
0200
0200
0200
0200
0202
2102
1006
080C
07F8
0000
ENDCHAR
STARTCHAR char68
ENCODING 68
SWIDTH 1600 0
DWIDTH 16 0
BBX 16 16 0 -2
BITMAP
0000
0010
0004
0384
0242
0202
0202
0202
0202
0202
0202
0206
0004
001C
3FF0
0000
ENDCHAR
STARTCHAR char69
ENCODING 69
SWIDTH 1600 0
DWIDTH 16 0
BBX 16 16 0 -2
BITMAP
0000
0002
0002
03FE
0200
0200
0002
0002
03FE
0200
0200
0200
0002
0002
3FFE
0000
ENDCHAR
STARTCHAR char70
ENCODING 70
SWIDTH 1600 0
DWIDTH 16 0
BBX 16 16 0 -2
BITMAP
0000
0002
0002
03FE
0200
0200
0002
0002
03FE
0200
0200
0200
0200
0200
3E00
0000
ENDCHAR
STARTCHAR char71
ENCODING 71
SWIDTH 1600 0
DWIDTH 16 0
BBX 16 16 0 -2
BITMAP
0000
0008
0004
03C2
0622
041E
0400
0402
0402
04E2
0402
0202
2006
100C
0FF8
0000
ENDCHAR
STARTCHAR char72
ENCODING 72
SWIDTH 1600 0
DWIDTH 16 0
BBX 16 16 0 -2
BITMAP
0000
0202
0202
0202
0202
0202
0002
0002
0002
03C2
0202
0202
0202
0202
3E3E
0000
ENDCHAR
STARTCHAR char73
ENCODING 73
SWIDTH 1600 0
DWIDTH 16 0
BBX 16 16 0 -2
BITMAP
0000
0002
0002
3C3E
0020
0020
0020
0020
0020
0020
0020
0020
0002
0002
3FFE
0000
ENDCHAR
STARTCHAR char74
ENCODING 74
SWIDTH 1600 0
DWIDTH 16 0
BBX 16 16 0 -2
BITMAP
0000
0002
0002
01C2
0002
0002
0002
0002
0002
0002
0202
0202
2006
181C
07F0
0000
ENDCHAR
STARTCHAR char75
ENCODING 75
SWIDTH 1600 0
DWIDTH 16 0
BBX 16 16 0 -2
BITMAP
0000
0201
0203
0206
020C
0018
0030
0060
0020
0010
0208
0304
0282
0241
3E3F
0000
ENDCHAR
STARTCHAR char76
ENCODING 76
SWIDTH 1600 0
DWIDTH 16 0
BBX 16 16 0 -2
BITMAP
0000
0200
0200
0200
0200
0200
0200
0200
0200
0200
0200
0200
0002
0002
3FFE
0000
ENDCHAR
STARTCHAR char77
ENCODING 77
SWIDTH 1600 0
DWIDTH 16 0
BBX 16 16 0 -2
BITMAP
0000
0801
0401
0201
0101
0001
0421
0661
05C1
0401
0401
0401
0401
0401
7C1F
0000
ENDCHAR
STARTCHAR char78
ENCODING 78
SWIDTH 1600 0
DWIDTH 16 0
BBX 16 16 0 -2
BITMAP
0000
0802
0402
0202
0102
0082
0042
0002
0202
0302
0282
0242
0222
0212
3E0E
0000
ENDCHAR
STARTCHAR char79
ENCODING 79
SWIDTH 1600 0
DWIDTH 16 0
BBX 16 16 0 -2
BITMAP
0000
0020
0008
0184
0344
0202
0202
0202
0202
0202
2206
0104
100C
0C38
03E0
0000
ENDCHAR
STARTCHAR char80
ENCODING 80
SWIDTH 1600 0
DWIDTH 16 0
BBX 16 16 0 -2
BITMAP
0000
0010
0004
0382
0242
0202
0202
0006
001C
03F0
0200
0200
0200
0200
3E00
0000
ENDCHAR
STARTCHAR char81
ENCODING 81
SWIDTH 1600 0
DWIDTH 16 0
BBX 16 16 0 -2
BITMAP
0000
0020
0008
0184
0344
0202
0202
0202
0202
0242
2206
0184
100C
0C44
03E2
001E
ENDCHAR
STARTCHAR char82
ENCODING 82
SWIDTH 1600 0
DWIDTH 16 0
BBX 16 16 0 -2
BITMAP
0000
0010
0004
0382
0242
0202
0206
000C
0038
0210
0308
0284
0242
0222
3E1E
0000
ENDCHAR
STARTCHAR char83
ENCODING 83
SWIDTH 1600 0
DWIDTH 16 0
BBX 16 16 0 -2
BITMAP
0000
0008
0004
03C2
063E
0400
2008
1004
0FC2
0022
0002
0202
2006
100C
0FF8
0000
ENDCHAR
STARTCHAR char84
ENCODING 84
SWIDTH 1600 0
DWIDTH 16 0
BBX 16 16 0 -2
BITMAP
0000
0002
0002
3C3E
0020
0020
0020
0020
0020
0020
0020
0020
0020
0020
03E0
0000
ENDCHAR
STARTCHAR char85
ENCODING 85
SWIDTH 1600 0
DWIDTH 16 0
BBX 16 16 0 -2
BITMAP
0000
0202
0202
0202
0202
0202
0202
0202
0202
0202
0202
2206
0004
181C
07F0
0000
ENDCHAR
STARTCHAR char86
ENCODING 86
SWIDTH 1600 0
DWIDTH 16 0
BBX 16 16 0 -2
BITMAP
0000
0202
0202
0202
0202
0202
0202
0202
0202
2206
110C
0818
0430
0260
01C0
0000
ENDCHAR
STARTCHAR char87
ENCODING 87
SWIDTH 1600 0
DWIDTH 16 0
BBX 16 16 0 -2
BITMAP
0000
0401
0401
0401
0401
0401
0401
0441
0421
0001
0181
0341
0621
0C11
780F
0000
ENDCHAR
STARTCHAR char88
ENCODING 88
SWIDTH 1600 0
DWIDTH 16 0
BBX 16 16 0 -2
BITMAP
0000
0202
0202
0202
2206
110C
0818
0430
0010
0188
0344
0202
0202
0202
3E3E
0000
ENDCHAR
STARTCHAR char89
ENCODING 89
SWIDTH 1600 0
DWIDTH 16 0
BBX 16 16 0 -2
BITMAP
0000
0202
0202
0202
0202
0102
2006
100C
0818
0430
0020
0020
0020
0020
03E0
0000
ENDCHAR
STARTCHAR char90
ENCODING 90
SWIDTH 1600 0
DWIDTH 16 0
BBX 16 16 0 -2
BITMAP
0000
0002
0002
3F82
0006
000C
0018
0030
0060
00C0
0180
0300
0002
0002
3FFE
0000
ENDCHAR
STARTCHAR char91
ENCODING 91
SWIDTH 1600 0
DWIDTH 16 0
BBX 16 16 0 -2
BITMAP
0000
0020
0020
00E0
0080
0080
0080
0080
0080
0080
0080
0080
0020
0020
07E0
0000
ENDCHAR
STARTCHAR char92
ENCODING 92
SWIDTH 1600 0
DWIDTH 16 0
BBX 16 16 0 -2
BITMAP
0000
0100
0100
0080
0480
0040
0240
0020
0120
0010
0090
0008
0048
0008
0038
0000
ENDCHAR
STARTCHAR char93
ENCODING 93
SWIDTH 1600 0
DWIDTH 16 0
BBX 16 16 0 -2
BITMAP
0000
0020
0020
0620
0020
0020
0020
0020
0020
0020
0020
0020
0020
0020
07E0
0000
ENDCHAR
STARTCHAR char94
ENCODING 94
SWIDTH 1600 0
DWIDTH 16 0
BBX 16 16 0 -2
BITMAP
0000
0040
0020
0010
0188
0348
0E38
0000
0000
0000
0000
0000
0000
0000
0000
0000
ENDCHAR
STARTCHAR char95
ENCODING 95
SWIDTH 1600 0
DWIDTH 16 0
BBX 16 16 0 -2
BITMAP
0000
0000
0000
0000
0000
0000
0000
0000
0000
0000
0000
0000
0004
0004
0FFC
0000
ENDCHAR
STARTCHAR char96
ENCODING 96
SWIDTH 1600 0
DWIDTH 16 0
BBX 16 16 0 -2
BITMAP
0000
0080
0040
0420
0220
01E0
0000
0000
0000
0000
0000
0000
0000
0000
0000
0000
ENDCHAR
STARTCHAR char97
ENCODING 97
SWIDTH 1600 0
DWIDTH 16 0
BBX 16 16 0 -2
BITMAP
0000
0000
0000
0000
0010
0004
0084
01C2
0302
0202
0202
0102
2022
1062
0FDE
0000
ENDCHAR
STARTCHAR char98
ENCODING 98
SWIDTH 1600 0
DWIDTH 16 0
BBX 16 16 0 -2
BITMAP
0000
0000
0200
0200
0200
0210
0008
0184
0342
0202
0202
0202
0006
000C
3FF8
0000
ENDCHAR
STARTCHAR char99
ENCODING 99
SWIDTH 1600 0
DWIDTH 16 0
BBX 16 16 0 -2
BITMAP
0000
0000
0000
0000
0010
0004
01C2
0322
021E
0200
0202
2102
0006
181C
07F0
0000
ENDCHAR
STARTCHAR char100
ENCODING 100
SWIDTH 1600 0
DWIDTH 16 0
BBX 16 16 0 -2
BITMAP
0000
0000
0002
0002
0002
0042
0002
0182
0342
0202
0202
0102
2002
1002
0FFE
0000
ENDCHAR
STARTCHAR char101
ENCODING 101
SWIDTH 1600 0
DWIDTH 16 0
BBX 16 16 0 -2
BITMAP
0000
0000
0000
0000
0010
0004
0184
0342
0002
0002
03FE
2200
0002
1806
07FC
0000
ENDCHAR
STARTCHAR char102
ENCODING 102
SWIDTH 1600 0
DWIDTH 16 0
BBX 16 16 0 -2
BITMAP
0000
0002
0002
003E
0020
0020
0004
0004
1C3C
0020
0020
0020
0020
0020
03E0
0000
ENDCHAR
STARTCHAR char103
ENCODING 103
SWIDTH 1600 0
DWIDTH 16 0
BBX 16 16 0 -2
BITMAP
0000
0000
0000
0000
0002
0002
01C2
0302
0102
2002
1002
0FC2
0002
0006
000C
1FF8
ENDCHAR
STARTCHAR char104
ENCODING 104
SWIDTH 1600 0
DWIDTH 16 0
BBX 16 16 0 -2
BITMAP
0000
0200
0200
0200
0200
0008
0004
0384
0242
0202
0202
0202
0202
0202
3E3E
0000
ENDCHAR
STARTCHAR char105
ENCODING 105
SWIDTH 1600 0
DWIDTH 16 0
BBX 16 16 0 -2
BITMAP
0000
0020
0020
03E0
0000
0020
0420
0020
0020
0020
0020
0020
0020
0010
03F0
0000
ENDCHAR
STARTCHAR char106
ENCODING 106
SWIDTH 1600 0
DWIDTH 16 0
BBX 16 16 0 -2
BITMAP
0000
0004
0004
007C
0000
0004
0004
0004
0004
0004
0204
0204
0204
200C
1018
0FF0
ENDCHAR
STARTCHAR char107
ENCODING 107
SWIDTH 1600 0
DWIDTH 16 0
BBX 16 16 0 -2
BITMAP
0000
0100
0100
0100
0100
0100
0104
010C
0018
0030
0010
0108
0184
0142
1F3E
0000
ENDCHAR
STARTCHAR char108
ENCODING 108
SWIDTH 1600 0
DWIDTH 16 0
BBX 16 16 0 -2
BITMAP
0000
0020
0020
0C20
0020
0020
0020
0020
0020
0020
0020
0020
0008
0008
03F8
0000
ENDCHAR
STARTCHAR char109
ENCODING 109
SWIDTH 1600 0
DWIDTH 16 0
BBX 16 16 0 -2
BITMAP
0000
0000
0000
0000
0202
0101
0001
0001
0421
0661
05C1
0401
0401
0401
7C1F
0000
ENDCHAR
STARTCHAR char110
ENCODING 110
SWIDTH 1600 0
DWIDTH 16 0
BBX 16 16 0 -2
BITMAP
0000
0000
0000
0000
0010
0008
0004
0384
0242
0202
0202
0202
0202
0202
3E3E
0000
ENDCHAR
STARTCHAR char111
ENCODING 111
SWIDTH 1600 0
DWIDTH 16 0
BBX 16 16 0 -2
BITMAP
0000
0000
0000
0000
0020
0008
0184
0342
0202
0202
0202
2106
100C
0C38
03E0
0000
ENDCHAR
STARTCHAR char112
ENCODING 112
SWIDTH 1600 0
DWIDTH 16 0
BBX 16 16 0 -2
BITMAP
0000
0000
0000
0000
0020
0008
0384
0242
0222
0202
0006
000C
03F8
0200
0200
3E00
ENDCHAR
STARTCHAR char113
ENCODING 113
SWIDTH 1600 0
DWIDTH 16 0
BBX 16 16 0 -2
BITMAP
0000
0000
0000
0000
0008
0008
0388
0608
0C08
0408
4009
2083
1F86
000C
0018
0070
ENDCHAR
STARTCHAR char114
ENCODING 114
SWIDTH 1600 0
DWIDTH 16 0
BBX 16 16 0 -2
BITMAP
0000
0000
0000
0000
0208
0204
0002
00C2
01A2
031E
0200
0200
0200
0200
3E00
0000
ENDCHAR
STARTCHAR char115
ENCODING 115
SWIDTH 1600 0
DWIDTH 16 0
BBX 16 16 0 -2
BITMAP
0000
0000
0000
0000
0004
0002
03FE
0600
2008
1004
0FE2
0002
0006
200C
1FF8
0000
ENDCHAR
STARTCHAR char116
ENCODING 116
SWIDTH 1600 0
DWIDTH 16 0
BBX 16 16 0 -2
BITMAP
0000
0020
0020
0020
0020
0004
0004
1C3C
0020
0020
0020
0020
0204
0102
00FE
0000
ENDCHAR
STARTCHAR char117
ENCODING 117
SWIDTH 1600 0
DWIDTH 16 0
BBX 16 16 0 -2
BITMAP
0000
0000
0000
0000
0202
0202
0202
0202
0202
0202
0202
0002
2042
10C2
0FBE
0000
ENDCHAR
STARTCHAR char118
ENCODING 118
SWIDTH 1600 0
DWIDTH 16 0
BBX 16 16 0 -2
BITMAP
0000
0000
0000
0000
0202
0202
0202
0202
0202
2206
110C
0818
0430
0260
01C0
0000
ENDCHAR
STARTCHAR char119
ENCODING 119
SWIDTH 1600 0
DWIDTH 16 0
BBX 16 16 0 -2
BITMAP
0000
0000
0000
0000
0401
0401
0401
0401
0441
0421
0001
0001
4183
2346
1E3C
0000
ENDCHAR
STARTCHAR char120
ENCODING 120
SWIDTH 1600 0
DWIDTH 16 0
BBX 16 16 0 -2
BITMAP
0000
0000
0000
0000
0402
0202
2106
100C
0818
0010
0008
0184
0342
0622
3C1E
0000
ENDCHAR
STARTCHAR char121
ENCODING 121
SWIDTH 1600 0
DWIDTH 16 0
BBX 16 16 0 -2
BITMAP
0000
0000
0000
0000
0202
0202
0202
0202
0202
2002
1002
0FC2
0006
000C
0018
3FF0
ENDCHAR
STARTCHAR char122
ENCODING 122
SWIDTH 1600 0
DWIDTH 16 0
BBX 16 16 0 -2
BITMAP
0000
0000
0000
0000
0002
0002
3F06
000C
0018
0030
0060
00C0
0002
0002
3FFE
0000
ENDCHAR
STARTCHAR char123
ENCODING 123
SWIDTH 1600 0
DWIDTH 16 0
BBX 16 16 0 -2
BITMAP
0000
0010
0030
0060
0040
00C0
0180
0300
2100
1880
0440
0040
0020
0210
01F0
0000
ENDCHAR
STARTCHAR char124
ENCODING 124
SWIDTH 1600 0
DWIDTH 16 0
BBX 16 16 0 -2
BITMAP
0000
0040
0040
0040
0040
0040
0040
0040
0040
0040
0040
0040
0040
0040
01C0
0000
ENDCHAR
STARTCHAR char125
ENCODING 125
SWIDTH 1600 0
DWIDTH 16 0
BBX 16 16 0 -2
BITMAP
0000
0040
0420
0220
0020
0110
0084
0042
0006
001C
0030
0020
0020
0060
07C0
0000
ENDCHAR
STARTCHAR char126
ENCODING 126
SWIDTH 1600 0
DWIDTH 16 0
BBX 16 16 0 -2
BITMAP
0000
0000
0000
0000
0000
0100
0082
0042
0E02
1906
308C
0078
0000
0000
0000
0000
ENDCHAR
STARTCHAR char127
ENCODING 127
SWIDTH 1600 0
DWIDTH 16 0
BBX 16 16 0 -2
BITMAP
0000
0000
0000
0000
0000
0000
0000
0000
0000
0000
0000
0842
0842
39CE
0000
0000
ENDCHAR
ENDFONT
